<?xml version="1.0" encoding="UTF-8" standalone="no"?>
<svg
   xmlns:dc="http://purl.org/dc/elements/1.1/"
   xmlns:cc="http://creativecommons.org/ns#"
   xmlns:rdf="http://www.w3.org/1999/02/22-rdf-syntax-ns#"
   xmlns:svg="http://www.w3.org/2000/svg"
   xmlns="http://www.w3.org/2000/svg"
   xmlns:sodipodi="http://sodipodi.sourceforge.net/DTD/sodipodi-0.dtd"
   xmlns:inkscape="http://www.inkscape.org/namespaces/inkscape"
   enable-background="new 0 0 612 792"
   version="1.1"
   viewBox="0 0 612 792"
   xml:space="preserve"
   id="svg2"
   inkscape:version="0.91 r13725"
   sodipodi:docname="1458796168_Information-Icon.svg"><metadata
     id="metadata12"><rdf:RDF><cc:Work
         rdf:about=""><dc:format>image/svg+xml</dc:format><dc:type
           rdf:resource="http://purl.org/dc/dcmitype/StillImage" /><dc:title></dc:title></cc:Work></rdf:RDF></metadata><defs
     id="defs10" /><sodipodi:namedview
     pagecolor="#ffffff"
     bordercolor="#666666"
     borderopacity="1"
     objecttolerance="10"
     gridtolerance="10"
     guidetolerance="10"
     inkscape:pageopacity="0"
     inkscape:pageshadow="2"
     inkscape:window-width="1440"
     inkscape:window-height="777"
     id="namedview8"
     showgrid="false"
     inkscape:zoom="0.42140707"
     inkscape:cx="-77.383678"
     inkscape:cy="394.03414"
     inkscape:window-x="44"
     inkscape:window-y="0"
     inkscape:window-maximized="0"
     inkscape:current-layer="Layer_2" /><g
     id="Layer_2"><path
       d="M306,190c-113.774,0-206,92.226-206,206s92.226,206,206,206s206-92.226,206-206S419.774,190,306,190z    M306.623,287.66c9.012,0,16.033,7.21,16.033,17.28c0,8.647-7.02,16.737-16.385,16.737c-8.999,0-16.738-8.091-16.738-16.737   C289.534,294.87,297.272,287.66,306.623,287.66z M345.154,505.817h-73.618V496.1c22.131-1.626,24.828-3.957,24.828-26.644V398.9   c0-20.695-0.718-22.145-22.497-25.018v-8.823c17.469-3.239,32.404-7.373,46.445-14.041v118.436   c0,22.687,2.345,25.018,24.842,26.644V505.817z"
       fill="#252525"
       id="path5"
       style="fill:#0c1975;fill-opacity:1" /></g><g
     id="Layer_3" /></svg>